<?xml version="1.0" encoding="UTF-8" standalone="no"?>
<svg id="BG" xmlns="http://www.w3.org/2000/svg" xmlns:xlink="http://www.w3.org/1999/xlink" viewBox="0 0 201.01 200"><defs><style>.cls-1{fill:none;}.cls-2{clip-path:url(#clip-path);}.cls-3{clip-path:url(#clip-path-2);}.cls-4,.cls-5{fill:#1393F6;}.cls-4{opacity:0;}</style><clipPath id="clip-path"><circle class="cls-1" cx="100.5" cy="100" r="99.17"/></clipPath><clipPath id="clip-path-2"><rect class="cls-1" x="1.33" y="0.83" width="198.34" height="198.34"/></clipPath></defs><title>icons-lead</title><g class="cls-2"><g class="cls-3"><rect class="cls-4" x="-14.66" y="-15.17" width="230.33" height="230.33"/></g></g><path class="cls-5" d="M100.5,2.5C46.65,2.5,3,43.49,3,100c0,51.18,43.65,97.5,97.5,97.5a97.5,97.5,0,0,0,0-195ZM74.32,57c10.83,0,20,6.82,24.17,16.56,1.08,2.62,3,2.61,4,0,4.07-9.55,13-16.34,23.66-16.56,14.68-.3,26.8,11.76,27.09,27.14a28.38,28.38,0,0,1-7.46,19.39H128.33L121,79a3.39,3.39,0,0,0-6.43-.12l-14.35,39.27-12-27.38a3.39,3.39,0,0,0-6-.45l-7.9,13.17H54.83c-4.39-5-7.08-10.19-7.08-18.76C47.75,69.37,59.65,57,74.32,57Zm77.19,62.53h.31l-18.68-.1C122,131.15,106,148,105.26,148.72c-3.32,3.25-6.45,3-9.61,0-.81-.78-16.13-16.92-28-29.46H49.18c-4.26,0-4.6-6.47-.24-6.79H76.27a3.39,3.39,0,0,0,2.91-1.65l5.51-9.23L97.4,130.68a3.39,3.39,0,0,0,6.29-.19l13.74-37.56,5.13,17.22a3.34,3.34,0,0,0,3.25,2.37h25.7A3.51,3.51,0,1,1,151.5,119.52Z"/></svg>